<?xml version="1.0" encoding="UTF-8" standalone="no"?>
<!-- Created with Inkscape (http://www.inkscape.org/) -->

<svg
   xmlns:dc="http://purl.org/dc/elements/1.1/"
   xmlns:cc="http://creativecommons.org/ns#"
   xmlns:rdf="http://www.w3.org/1999/02/22-rdf-syntax-ns#"
   xmlns:svg="http://www.w3.org/2000/svg"
   xmlns="http://www.w3.org/2000/svg"
   xmlns:sodipodi="http://sodipodi.sourceforge.net/DTD/sodipodi-0.dtd"
   xmlns:inkscape="http://www.inkscape.org/namespaces/inkscape"
   width="512"
   height="471.18454"
   viewBox="0 0 135.46666 124.66758"
   version="1.1"
   id="svg8"
   inkscape:version="0.92.2 (unknown)"
   sodipodi:docname="ministudio_logo.svg">
  <defs
     id="defs2" />
  <sodipodi:namedview
     id="base"
     pagecolor="#ffffff"
     bordercolor="#666666"
     borderopacity="1.0"
     inkscape:pageopacity="0.0"
     inkscape:pageshadow="2"
     inkscape:zoom="1.979899"
     inkscape:cx="721.86663"
     inkscape:cy="274.44407"
     inkscape:document-units="px"
     inkscape:current-layer="layer1"
     showgrid="false"
     inkscape:window-width="3799"
     inkscape:window-height="2136"
     inkscape:window-x="41"
     inkscape:window-y="24"
     inkscape:window-maximized="1"
     units="px"
     fit-margin-top="0"
     fit-margin-left="0"
     fit-margin-right="0"
     fit-margin-bottom="0" />
  <metadata
     id="metadata5">
    <rdf:RDF>
      <cc:Work
         rdf:about="">
        <dc:format>image/svg+xml</dc:format>
        <dc:type
           rdf:resource="http://purl.org/dc/dcmitype/StillImage" />
        <dc:title></dc:title>
      </cc:Work>
    </rdf:RDF>
  </metadata>
  <g
     inkscape:label="Layer 1"
     inkscape:groupmode="layer"
     id="layer1"
     transform="translate(803.67725,456.14514)">
    <g
       id="g1090"
       transform="matrix(0.95185402,0,0,0.95185402,-38.693829,-15.959312)">
      <rect
         y="-459.95099"
         x="-801.17725"
         height="125.97342"
         width="137.31874"
         id="rect1053"
         style="color:#000000;clip-rule:nonzero;display:inline;overflow:visible;visibility:visible;opacity:1;isolation:auto;mix-blend-mode:normal;color-interpolation:sRGB;color-interpolation-filters:linearRGB;solid-color:#000000;solid-opacity:1;fill:#fdfdfd;fill-opacity:1;fill-rule:evenodd;stroke:#ffffff;stroke-width:5;stroke-linecap:butt;stroke-linejoin:round;stroke-miterlimit:4;stroke-dasharray:none;stroke-dashoffset:0;stroke-opacity:1;color-rendering:auto;image-rendering:auto;shape-rendering:auto;text-rendering:auto;enable-background:accumulate" />
      <path
         d="M -801.17723,-333.97758 V -459.951 h 137.31875 v 125.97342 h -59.70058 c -1.83621,-3.31259 -5.3684,-5.5589 -9.42182,-5.5589 -4.05341,0 -7.5856,2.24631 -9.42181,5.5589 z m 7.41019,-6.71513 h 4.39975 c 0.898,0 1.62084,-0.72231 1.62084,-1.6219 v -7.64116 c 0,-0.89694 -0.72284,-1.6219 -1.62084,-1.6219 h -4.39975 c -0.898,0 -1.62111,0.72496 -1.62111,1.6219 v 7.64116 c 0,0.89959 0.72311,1.6219 1.62111,1.6219 z m 17.23839,0 h 4.39738 c 0.89958,0 1.62189,-0.72231 1.62189,-1.6219 v -7.64116 c 0,-0.89694 -0.72231,-1.6219 -1.62189,-1.6219 h -4.39738 c -0.89958,0 -1.62189,0.72496 -1.62189,1.6219 v 7.64116 c 0,0.89959 0.72231,1.6219 1.62189,1.6219 z m 17.22967,0 h 4.40002 c 0.89694,0 1.61925,-0.72231 1.61925,-1.6219 v -7.64116 c 0,-0.89694 -0.72231,-1.6219 -1.61925,-1.6219 h -4.40002 c -0.89958,0 -1.6219,0.72496 -1.6219,1.6219 v 7.64116 c 0,0.89959 0.72232,1.6219 1.6219,1.6219 z m 17.23496,0 h 4.40002 c 0.89958,0 1.62189,-0.72231 1.62189,-1.6219 v -7.64116 c 0,-0.89694 -0.72231,-1.6219 -1.62189,-1.6219 h -4.40002 c -0.89694,0 -1.61925,0.72496 -1.61925,1.6219 v 7.64116 c 0,0.89959 0.72231,1.6219 1.61925,1.6219 z m 17.2376,0 h 4.40002 c 0.89959,0 1.6219,-0.72231 1.6219,-1.6219 v -7.64116 c 0,-0.89694 -0.72231,-1.6219 -1.6219,-1.6219 h -4.40002 c -0.89694,0 -1.61925,0.72496 -1.61925,1.6219 v 7.64116 c 0,0.89959 0.72231,1.6219 1.61925,1.6219 z m 17.23761,0 h 4.40002 c 0.89693,0 1.62189,-0.72231 1.62189,-1.6219 v -7.64116 c 0,-0.89694 -0.72496,-1.6219 -1.62189,-1.6219 h -4.40002 c -0.89694,0 -1.61925,0.72496 -1.61925,1.6219 v 7.64116 c 0,0.89959 0.72231,1.6219 1.61925,1.6219 z m 17.22966,0 h 4.40002 c 0.89959,0 1.6219,-0.72231 1.6219,-1.6219 v -7.64116 c 0,-0.89694 -0.72231,-1.6219 -1.6219,-1.6219 h -4.40002 c -0.89694,0 -1.61925,0.72496 -1.61925,1.6219 v 7.64116 c 0,0.89959 0.72231,1.6219 1.61925,1.6219 z m 17.23761,0 h 4.40002 c 0.89693,0 1.62189,-0.72231 1.62189,-1.6219 v -7.64116 c 0,-0.89694 -0.72496,-1.6219 -1.62189,-1.6219 h -4.40002 c -0.89694,0 -1.61925,0.72496 -1.61925,1.6219 v 7.64116 c 0,0.89959 0.72231,1.6219 1.61925,1.6219 z m -121.80359,-12.96723 h 124.81454 c 1.79652,0 3.24115,-1.44727 3.24115,-3.24379 V -436.329 c 0,-1.79652 -1.44463,-3.24379 -3.24115,-3.24379 h -124.81454 c -1.79572,0 -3.24167,1.44727 -3.24167,3.24379 v 79.42527 c 0,1.79652 1.44595,3.24379 3.24194,3.24379 z m 0.92631,-88.45814 h 4.39976 c 0.89799,0 1.62083,-0.72496 1.62083,-1.6219 v -7.64117 c 0,-0.89958 -0.72284,-1.62189 -1.62083,-1.62189 h -4.39976 c -0.89826,0 -1.6211,0.72231 -1.6211,1.62189 v 7.64117 c 0,0.89694 0.72284,1.6219 1.6211,1.6219 z m 17.23707,0 h 4.40003 c 0.89693,0 1.62189,-0.72496 1.62189,-1.6219 v -7.64117 c 0,-0.89958 -0.72496,-1.62189 -1.62189,-1.62189 h -4.40003 c -0.89693,0 -1.62189,0.72231 -1.62189,1.62189 v 7.64117 c 0,0.89694 0.72496,1.6219 1.62189,1.6219 z m 17.22967,0 h 4.40002 c 0.89694,0 1.6219,-0.72496 1.6219,-1.6219 v -7.64117 c 0,-0.89958 -0.72496,-1.62189 -1.6219,-1.62189 h -4.40002 c -0.89694,0 -1.62189,0.72231 -1.62189,1.62189 v 7.64117 c 0,0.89694 0.72495,1.6219 1.62189,1.6219 z m 17.23761,0 h 4.40002 c 0.89693,0 1.62189,-0.72496 1.62189,-1.6219 v -7.64117 c 0,-0.89958 -0.72496,-1.62189 -1.62189,-1.62189 h -4.40002 c -0.89694,0 -1.6219,0.72231 -1.6219,1.62189 v 7.64117 c 0,0.89694 0.72496,1.6219 1.6219,1.6219 z m 17.2376,0 h 4.40002 c 0.89694,0 1.61925,-0.72496 1.61925,-1.6219 v -7.64117 c 0,-0.89958 -0.72231,-1.62189 -1.61925,-1.62189 h -4.40002 c -0.89958,0 -1.6219,0.72231 -1.6219,1.62189 v 7.64117 c 0,0.89694 0.72232,1.6219 1.6219,1.6219 z m 17.2376,0 h 4.40002 c 0.89694,0 1.61925,-0.72496 1.61925,-1.6219 v -7.64117 c 0,-0.89958 -0.72231,-1.62189 -1.61925,-1.62189 h -4.40002 c -0.89958,0 -1.62189,0.72231 -1.62189,1.62189 v 7.64117 c 0,0.89694 0.72231,1.6219 1.62189,1.6219 z m 17.22967,0 h 4.40002 c 0.89694,0 1.61925,-0.72496 1.61925,-1.6219 v -7.64117 c 0,-0.89958 -0.72231,-1.62189 -1.61925,-1.62189 h -4.40002 c -0.89958,0 -1.6219,0.72231 -1.6219,1.62189 v 7.64117 c 0,0.89694 0.72232,1.6219 1.6219,1.6219 z m 17.2376,0 h 4.40002 c 0.89694,0 1.61925,-0.72496 1.61925,-1.6219 v -7.64117 c 0,-0.89958 -0.72231,-1.62189 -1.61925,-1.62189 h -4.40002 c -0.89958,0 -1.62189,0.72231 -1.62189,1.62189 v 7.64117 c 0,0.89694 0.72231,1.6219 1.62189,1.6219 z"
         style="fill:#575757;stroke-width:0.26458332"
         id="path7732"
         inkscape:connector-curvature="0" />
      <path
         id="path1021"
         d="m -756.53673,-333.97758 v -0.0159 h -0.0132 v -3.19087 h -1.46844 v 3.19087 h -1.64306 v -6.74423 c 0.11642,0.0265 0.23548,0.045 0.36248,0.045 h 4.40002 c 0.68527,0 1.26735,-0.42598 1.50283,-1.02923 h 0.0582 1.55575 v 7.74436 h -1.64306 v -3.09034 h -1.46844 v 3.09034 z"
         style="fill:#2c2c2c;stroke-width:0.26458332"
         inkscape:connector-curvature="0" />
      <path
         id="path1019"
         d="m -722.61186,-333.97758 v -6.71513 h 2.18546 c 0.69321,0 1.28059,-0.43392 1.51342,-1.04246 h 1.05569 v 7.75759 h -1.64307 v -3.10357 h -1.46843 v 3.10357 z"
         style="fill:#2c2c2c;stroke-width:0.26458332"
         inkscape:connector-curvature="0" />
      <path
         id="path1017"
         d="m -801.10579,-333.99348 v -3.175 h 1.63539 v 3.175 z"
         style="fill:#2c2c2c;stroke-width:0.26458332"
         inkscape:connector-curvature="0" />
      <path
         id="path1015"
         d="m -792.42931,-333.99348 v -6.69925 h 3.06096 c 0.73211,0 1.34594,-0.4789 1.54861,-1.143 h 0.14473 v 7.84225 h -1.6428 v -3.19087 h -1.46897 v 3.19087 z"
         style="fill:#2c2c2c;stroke-width:0.26458332"
         inkscape:connector-curvature="0" />
      <path
         id="path1013"
         d="m -677.44933,-333.99348 v -3.175 h 1.63512 v 3.175 z"
         style="fill:#2c2c2c;stroke-width:0.26458332"
         inkscape:connector-curvature="0" />
      <path
         id="path1011"
         d="m -668.77365,-333.99348 v -6.69925 h 0.0503 c 0.7329,0 1.34673,-0.4789 1.54782,-1.143 h 0.045 1.55575 1.55575 v 7.84225 h -1.64307 v -3.19087 h -1.46843 v 3.19087 z"
         style="fill:#2c2c2c;stroke-width:0.26458332"
         inkscape:connector-curvature="0" />
      <path
         id="path1009"
         d="m -797.75008,-334.07288 v -3.1115 h -1.64254 v -4.65138 h 1.64254 v 4.57994 h 1.63539 v -4.66725 h 0.77443 c 0.11668,0.4736 0.43789,0.86519 0.86837,1.07156 v 6.77863 h -1.6428 z"
         style="fill:#2c2c2c;stroke-width:0.26458332"
         inkscape:connector-curvature="0" />
      <path
         id="path1007"
         d="m -674.09177,-334.07288 v -3.1115 h -1.64306 v -4.65138 h 1.06362 c 0.10054,0.33338 0.30692,0.62177 0.57944,0.8255 v 3.75444 h 1.63512 v -3.43694 h 1.64307 v 6.61988 h -1.64307 z"
         style="fill:#2c2c2c;stroke-width:0.26458332"
         inkscape:connector-curvature="0" />
      <path
         id="path1005"
         d="m -744.69848,-334.07788 v -3.18558 h 1.64306 v 3.18558 z"
         style="fill:#2c2c2c;stroke-width:0.26458332"
         inkscape:connector-curvature="0" />
      <path
         id="path997"
         d="m -780.16323,-335.39551 v -0.95515 h -4.57464 v -1.50548 h 4.57464 v -0.95514 l 1.47373,0.8546 1.47638,0.85196 -1.47638,0.8546 z"
         style="fill:#2c2c2c;stroke-width:0.26458332"
         inkscape:connector-curvature="0" />
      <path
         id="path989"
         d="m -725.73844,-336.72639 c -0.0794,-0.0741 -0.16404,-0.14022 -0.24606,-0.21166 v -4.23334 c 0.29369,0.29898 0.70379,0.4789 1.15623,0.4789 h 0.48683 v 3.9661 z"
         style="fill:#2c2c2c;stroke-width:0.26458332"
         inkscape:connector-curvature="0" />
      <path
         id="path985"
         d="m -749.83669,-337.07563 v -4.65931 h 1.64307 v 4.65931 z"
         style="fill:#2c2c2c;stroke-width:0.26458332"
         inkscape:connector-curvature="0" />
      <path
         id="path983"
         d="m -746.42885,-337.07563 v -4.65931 h 1.64306 v 4.65931 z"
         style="fill:#2c2c2c;stroke-width:0.26458332"
         inkscape:connector-curvature="0" />
      <path
         id="path981"
         d="m -743.02102,-337.07563 v -3.92906 c 0.26987,0.19579 0.59796,0.31221 0.95515,0.31221 h 0.68791 v 3.61685 z"
         style="fill:#2c2c2c;stroke-width:0.26458332"
         inkscape:connector-curvature="0" />
      <path
         id="path979"
         d="m -739.61054,-337.24231 v -3.45017 h 1.64306 v 2.38654 c -0.58208,0.30692 -1.13242,0.66411 -1.64306,1.06363 z"
         style="fill:#2c2c2c;stroke-width:0.26458332"
         inkscape:connector-curvature="0" />
      <path
         id="path973"
         d="m -727.75192,-338.17369 c -0.52123,-0.29368 -1.06891,-0.54239 -1.64041,-0.74612 v -2.69875 h 1.64041 z"
         style="fill:#2c2c2c;stroke-width:0.26458332"
         inkscape:connector-curvature="0" />
      <path
         id="path971"
         d="m -736.20271,-339.04417 v -2.57439 h 1.63513 v 2.19869 c -0.56092,0.0847 -1.10596,0.21166 -1.63513,0.3757 z"
         style="fill:#2c2c2c;stroke-width:0.26458332"
         inkscape:connector-curvature="0" />
      <path
         id="rect7548"
         d="m -731.15975,-339.38283 c -0.53181,-0.09 -1.0795,-0.14288 -1.63512,-0.15346 v -2.08227 h 1.63512 z"
         style="fill:#2c2c2c;stroke-width:0.26458332"
         inkscape:connector-curvature="0" />
      <path
         d="m -801.17723,-343.00781 v -5.09588 h 5.78908 v 5.09588 z m 13.43078,0 v -5.09588 h 9.59591 v 5.09588 z m 17.23707,0 v -5.09588 h 9.5885 v 5.09588 z m 17.22967,0 v -5.09588 h 9.59644 v 5.09588 z m 17.2376,0 v -5.09588 h 9.59644 v 5.09588 z m 17.23761,0 v -5.09588 h 9.59644 v 5.09588 z m 17.2376,0 v -5.09588 h 9.5885 v 5.09588 z m 17.22967,0 v -5.09588 h 9.59644 v 5.09588 z m 17.2376,0 v -5.09588 h 3.24115 v 5.09588 z"
         style="fill:#2c2c2c;stroke-width:0.26458332"
         id="path7579"
         inkscape:connector-curvature="0" />
      <path
         d="m -801.17723,-444.39879 v -5.23875 h 5.55757 v 5.23875 z m 13.19927,0 v -5.23875 h 9.59458 v 5.23875 z m 17.2384,0 v -5.23875 h 9.58585 v 5.23875 z m 17.22966,0 v -5.23875 h 9.59379 v 5.23875 z m 17.23761,0 v -5.23875 h 9.59379 v 5.23875 z m 17.23495,0 v -5.23875 h 9.59644 v 5.23875 z m 17.23761,0 v -5.23875 h 9.5885 v 5.23875 z m 17.22967,0 v -5.23875 h 9.59643 v 5.23875 z m 17.2376,0 v -5.23875 h 3.47398 v 5.23875 z"
         style="fill:#2c2c2c;stroke-width:0.26458332"
         id="rect7737"
         inkscape:connector-curvature="0" />
      <path
         d="m -800.04111,-454.05873 v -5.89227 h 3.27078 v 5.89227 z m 4.74715,0 v -5.89227 h 2.12752 v 5.89227 z m 31.76588,0 v -5.89227 h 3.2729 v 5.89227 z m 4.74927,0 v -5.89227 h 2.12725 v 5.89227 z m 3.34169,0 v -5.89227 h 2.12725 v 5.89227 z m 43.99756,0 v -5.89227 h 2.12725 v 5.89227 z m 3.24115,0 v -5.89227 h 2.12989 v 5.89227 z m 3.12737,0 v -5.89227 h 3.27025 v 5.89227 z m 7.98777,0 v -5.89227 h 2.1299 v 5.89227 z m 3.24379,0 v -5.89227 h 2.12725 v 5.89227 z m 3.24115,0 v -5.89227 h 2.12725 v 5.89227 z m 18.0631,0 v -5.89227 h 2.12725 v 5.89227 z m 3.48721,0 v -5.89227 h 3.27025 v 5.89227 z"
         style="fill:#2c2c2c;stroke-width:0.26458332"
         id="rect7744"
         inkscape:connector-curvature="0" />
      <text
         id="text869"
         y="-454.40131"
         x="-744.36377"
         style="font-style:normal;font-variant:normal;font-weight:bold;font-stretch:normal;font-size:4.91348886px;line-height:11.36830902px;font-family:Arial;-inkscape-font-specification:'Arial, Bold';font-variant-ligatures:normal;font-variant-caps:normal;font-variant-numeric:normal;font-feature-settings:normal;text-align:start;letter-spacing:0px;word-spacing:0px;writing-mode:lr-tb;text-anchor:start;fill:#2c2c2c;fill-opacity:1;stroke:none;stroke-width:0.45473236px;stroke-linecap:butt;stroke-linejoin:miter;stroke-opacity:1"
         xml:space="preserve"><tspan
           style="font-style:normal;font-variant:normal;font-weight:bold;font-stretch:normal;font-size:4.91348886px;font-family:Arial;-inkscape-font-specification:'Arial, Bold';font-variant-ligatures:normal;font-variant-caps:normal;font-variant-numeric:normal;font-feature-settings:normal;text-align:start;writing-mode:lr-tb;text-anchor:start;fill:#2c2c2c;fill-opacity:1;stroke-width:0.45473236px"
           y="-454.40131"
           x="-744.36377"
           id="tspan867"
           sodipodi:role="line">MINISTUDIO</tspan></text>
      <text
         xml:space="preserve"
         style="font-style:normal;font-variant:normal;font-weight:bold;font-stretch:normal;font-size:4.91348886px;line-height:11.36830902px;font-family:Arial;-inkscape-font-specification:'Arial, Bold';font-variant-ligatures:normal;font-variant-caps:normal;font-variant-numeric:normal;font-feature-settings:normal;text-align:start;letter-spacing:0px;word-spacing:0px;writing-mode:lr-tb;text-anchor:start;fill:#2c2c2c;fill-opacity:1;stroke:none;stroke-width:0.45473236px;stroke-linecap:butt;stroke-linejoin:miter;stroke-opacity:1"
         x="-782.3504"
         y="-454.40131"
         id="text895"><tspan
           sodipodi:role="line"
           id="tspan893"
           x="-782.3504"
           y="-454.40131"
           style="font-style:normal;font-variant:normal;font-weight:bold;font-stretch:normal;font-size:4.91348886px;font-family:Arial;-inkscape-font-specification:'Arial, Bold';font-variant-ligatures:normal;font-variant-caps:normal;font-variant-numeric:normal;font-feature-settings:normal;text-align:start;writing-mode:lr-tb;text-anchor:start;fill:#2c2c2c;fill-opacity:1;stroke-width:0.45473236px">LIVE</tspan></text>
      <text
         id="text899"
         y="-451.9917"
         x="-786.12518"
         style="font-style:normal;font-variant:normal;font-weight:bold;font-stretch:normal;font-size:2.99937201px;line-height:6.9396286px;font-family:Arial;-inkscape-font-specification:'Arial, Bold';font-variant-ligatures:normal;font-variant-caps:normal;font-variant-numeric:normal;font-feature-settings:normal;text-align:start;letter-spacing:0px;word-spacing:0px;writing-mode:lr-tb;text-anchor:start;fill:#2c2c2c;fill-opacity:1;stroke:none;stroke-width:0.27758515px;stroke-linecap:butt;stroke-linejoin:miter;stroke-opacity:1"
         xml:space="preserve"><tspan
           style="font-style:normal;font-variant:normal;font-weight:bold;font-stretch:normal;font-size:2.99937201px;font-family:Arial;-inkscape-font-specification:'Arial, Bold';font-variant-ligatures:normal;font-variant-caps:normal;font-variant-numeric:normal;font-feature-settings:normal;text-align:start;writing-mode:lr-tb;text-anchor:start;fill:#2c2c2c;fill-opacity:1;stroke-width:0.27758515px"
           y="-451.9917"
           x="-786.12518"
           id="tspan897"
           sodipodi:role="line">CC</tspan></text>
      <text
         xml:space="preserve"
         style="font-style:normal;font-variant:normal;font-weight:bold;font-stretch:normal;font-size:2.99937201px;line-height:6.9396286px;font-family:Arial;-inkscape-font-specification:'Arial, Bold';font-variant-ligatures:normal;font-variant-caps:normal;font-variant-numeric:normal;font-feature-settings:normal;text-align:start;letter-spacing:0px;word-spacing:0px;writing-mode:lr-tb;text-anchor:start;fill:#2c2c2c;fill-opacity:1;stroke:none;stroke-width:0.27758515px;stroke-linecap:butt;stroke-linejoin:miter;stroke-opacity:1"
         x="-749.46149"
         y="-451.9917"
         id="text921"><tspan
           sodipodi:role="line"
           id="tspan919"
           x="-749.46149"
           y="-451.9917"
           style="font-style:normal;font-variant:normal;font-weight:bold;font-stretch:normal;font-size:2.99937201px;font-family:Arial;-inkscape-font-specification:'Arial, Bold';font-variant-ligatures:normal;font-variant-caps:normal;font-variant-numeric:normal;font-feature-settings:normal;text-align:start;writing-mode:lr-tb;text-anchor:start;fill:#2c2c2c;fill-opacity:1;stroke-width:0.27758515px">CC</tspan></text>
      <text
         xml:space="preserve"
         style="font-style:normal;font-variant:normal;font-weight:bold;font-stretch:normal;font-size:4.93511295px;line-height:11.41834068px;font-family:Arial;-inkscape-font-specification:'Arial, Bold';font-variant-ligatures:normal;font-variant-caps:normal;font-variant-numeric:normal;font-feature-settings:normal;text-align:start;letter-spacing:0px;word-spacing:0px;writing-mode:lr-tb;text-anchor:start;fill:#2c2c2c;fill-opacity:1;stroke:none;stroke-width:0.45673364px;stroke-linecap:butt;stroke-linejoin:miter;stroke-opacity:1"
         x="-772.71979"
         y="-335.61945"
         id="text957"><tspan
           sodipodi:role="line"
           id="tspan955"
           x="-772.71979"
           y="-335.61945"
           style="font-style:normal;font-variant:normal;font-weight:bold;font-stretch:normal;font-size:4.93511295px;font-family:Arial;-inkscape-font-specification:'Arial, Bold';font-variant-ligatures:normal;font-variant-caps:normal;font-variant-numeric:normal;font-feature-settings:normal;text-align:start;writing-mode:lr-tb;text-anchor:start;fill:#2c2c2c;fill-opacity:1;stroke-width:0.45673364px">OC</tspan></text>
      <text
         id="text1033"
         y="-335.61945"
         x="-701.02472"
         style="font-style:normal;font-variant:normal;font-weight:bold;font-stretch:normal;font-size:4.93511295px;line-height:11.41834068px;font-family:Arial;-inkscape-font-specification:'Arial, Bold';font-variant-ligatures:normal;font-variant-caps:normal;font-variant-numeric:normal;font-feature-settings:normal;text-align:start;letter-spacing:0px;word-spacing:0px;writing-mode:lr-tb;text-anchor:start;fill:#2c2c2c;fill-opacity:1;stroke:none;stroke-width:0.45673364px;stroke-linecap:butt;stroke-linejoin:miter;stroke-opacity:1"
         xml:space="preserve"><tspan
           style="font-style:normal;font-variant:normal;font-weight:bold;font-stretch:normal;font-size:4.93511295px;font-family:Arial;-inkscape-font-specification:'Arial, Bold';font-variant-ligatures:normal;font-variant-caps:normal;font-variant-numeric:normal;font-feature-settings:normal;text-align:start;writing-mode:lr-tb;text-anchor:start;fill:#2c2c2c;fill-opacity:1;stroke-width:0.45673364px"
           y="-335.61945"
           x="-701.02472"
           id="tspan1031"
           sodipodi:role="line">LAR</tspan></text>
    </g>
    <rect
       id="rect7739"
       style="fill:#2c2c2c;stroke-width:0.26458332"
       height="0.74834746"
       width="0"
       y="506.61823"
       x="-718.55841"
       transform="scale(1,-1)" />
    <path
       style="fill:#ff4b0f;fill-opacity:1;stroke-width:0.14570168"
       d="m -766.16242,-362.95386 c -2.82952,-2.82061 -4.48524,-4.80658 -6.34693,-7.61291 -4.29941,-6.48091 -6.81388,-13.37291 -7.73448,-21.19959 -0.32145,-2.73286 -0.32145,-7.90335 0,-10.63622 0.92808,-7.89033 3.48764,-14.85176 7.87494,-21.41814 1.71306,-2.56388 3.4417,-4.63302 6.07717,-7.27417 l 2.46071,-2.46602 2.53229,2.5292 2.5323,2.52918 -0.97537,0.87052 c -6.36807,5.68343 -10.91837,13.42854 -12.76805,21.7326 -0.71257,3.19905 -0.87568,4.84099 -0.87568,8.81494 0,3.97395 0.16311,5.6159 0.87568,8.81495 1.81441,8.14571 6.2516,15.80026 12.3755,21.34884 0.72122,0.65347 1.40813,1.28142 1.52646,1.39544 0.18808,0.18126 -0.0958,0.51863 -2.25677,2.68246 -1.35955,1.36132 -2.524,2.47512 -2.58767,2.47512 -0.0636,0 -1.28321,-1.16378 -2.7101,-2.5862 z m 61.97931,0.11108 c -2.16103,-2.16383 -2.44486,-2.5012 -2.25676,-2.68246 0.11832,-0.11402 0.80524,-0.74197 1.52646,-1.39544 7.00083,-6.34313 11.55256,-14.99685 12.99183,-24.69998 0.36549,-2.46406 0.36549,-8.46355 0,-10.92762 -1.46345,-9.86614 -6.12125,-18.59509 -13.3844,-25.08298 l -0.97536,-0.87127 2.53231,-2.52918 2.53229,-2.5292 2.4607,2.46602 c 1.35339,1.3563 3.03346,3.18724 3.73351,4.06873 4.92403,6.20035 8.24611,13.41879 9.68946,21.05389 1.04304,5.51749 1.04304,12.25811 0,17.77561 -1.44276,7.63197 -4.76619,14.85611 -9.68572,21.05389 -1.17752,1.48346 -6.31416,6.77511 -6.57665,6.77511 -0.0636,0 -1.22812,-1.1138 -2.58767,-2.47512 z m -48.02469,-10.83671 c -3.37389,-2.9004 -6.03655,-6.31273 -7.86021,-10.07328 -5.16361,-10.6478 -3.7013,-23.34067 3.75164,-32.56432 0.92341,-1.14279 4.1757,-4.37886 4.66281,-4.63956 0.24626,-0.13179 0.60155,0.16893 2.79962,2.3697 l 2.51757,2.52066 -0.47947,0.3414 c -1.64074,1.16832 -3.88067,3.55254 -5.25473,5.59324 -2.91939,4.33581 -4.3828,9.85708 -3.92797,14.81978 0.20778,2.26708 0.47357,3.54513 1.17987,5.6735 1.31387,3.95925 3.90854,7.83362 6.92095,10.33439 0.62423,0.5182 1.30628,1.08632 1.51569,1.2625 l 0.38075,0.32033 -2.47532,2.48443 c -1.36143,1.36644 -2.51521,2.48443 -2.56398,2.48443 -0.0487,0 -0.57399,-0.41725 -1.16722,-0.9272 z m 35.63664,-1.55723 -2.47532,-2.48443 0.38075,-0.32033 c 0.20941,-0.17618 0.89147,-0.7443 1.51568,-1.2625 3.01241,-2.50077 5.60709,-6.37514 6.92097,-10.33439 1.68982,-5.09211 1.68984,-9.801 8e-5,-14.8922 -1.4488,-4.36518 -4.29638,-8.35684 -7.99254,-11.20372 l -0.47291,-0.36425 2.53341,-2.52576 2.53343,-2.52577 0.86025,0.71782 c 1.41016,1.17666 3.9973,3.96553 5.04298,5.43618 2.7779,3.90689 4.57392,8.1536 5.35684,12.66635 0.40377,2.32736 0.54218,6.06978 0.30745,8.31315 -0.72405,6.92001 -3.69268,13.26771 -8.50597,18.18798 -1.18606,1.21241 -3.27098,3.0763 -3.44113,3.0763 -0.0487,0 -1.20254,-1.11799 -2.56397,-2.48443 z m -17.99254,-12.89585 c -1.61905,-0.34898 -2.98234,-1.12505 -4.31184,-2.45454 -1.35028,-1.35027 -2.1093,-2.70171 -2.46265,-4.38468 -0.43508,-2.07228 -0.17732,-4.15375 0.74877,-6.04662 0.74262,-1.51787 2.46802,-3.24327 3.98589,-3.9859 2.60376,-1.27389 5.55555,-1.27389 8.15929,0 1.51788,0.74263 3.24328,2.46803 3.9859,3.9859 1.27389,2.60375 1.27389,5.55553 0,8.15929 -0.74262,1.51787 -2.46802,3.24327 -3.9859,3.9859 -1.8855,0.92248 -4.05673,1.18527 -6.11946,0.74065 z"
       id="path855"
       inkscape:connector-curvature="0" />
  </g>
</svg>
